<mxfile host="app.diagrams.net" modified="2021-05-31T08:23:35.388Z" agent="5.0 (Macintosh; Intel Mac OS X 10_15_7) AppleWebKit/537.36 (KHTML, like Gecko) Chrome/90.0.4430.212 Safari/537.36 Edg/90.0.818.62" etag="HrNvpwmpG-t8sHauZFX-" version="14.6.13" type="github">
  <diagram id="sK7fOs_YZbrc1wKjL_sm" name="Page-1">
    <mxGraphModel dx="1170" dy="688" grid="1" gridSize="10" guides="1" tooltips="1" connect="1" arrows="1" fold="1" page="1" pageScale="1" pageWidth="827" pageHeight="1169" math="1" shadow="0">
      <root>
        <mxCell id="0" />
        <mxCell id="1" parent="0" />
        <mxCell id="WKR-RuweENGPH2hn3mRi-95" value="&lt;font style=&quot;font-size: 16px&quot;&gt;1 2 3 4 5&lt;/font&gt;&amp;nbsp;" style="text;html=1;strokeColor=none;fillColor=none;align=center;verticalAlign=middle;whiteSpace=wrap;rounded=0;" vertex="1" parent="1">
          <mxGeometry x="230" y="160" width="130" height="40" as="geometry" />
        </mxCell>
        <mxCell id="WKR-RuweENGPH2hn3mRi-96" value="&lt;font style=&quot;font-size: 16px&quot;&gt;1 2 3 5 4&lt;/font&gt;&amp;nbsp;" style="text;html=1;strokeColor=none;fillColor=none;align=center;verticalAlign=middle;whiteSpace=wrap;rounded=0;" vertex="1" parent="1">
          <mxGeometry x="230" y="200" width="130" height="40" as="geometry" />
        </mxCell>
      </root>
    </mxGraphModel>
  </diagram>
</mxfile>
